<?xml version="1.0" encoding="utf-8"?>
<!-- Generator: Adobe Illustrator 19.0.0, SVG Export Plug-In . SVG Version: 6.00 Build 0)  -->
<svg version="1.1" id="Capa_1" xmlns="http://www.w3.org/2000/svg" xmlns:xlink="http://www.w3.org/1999/xlink" x="0px" y="0px"
	 width="65px" height="43.3px" viewBox="0 0 65 43.3" style="enable-background:new 0 0 65 43.3;" xml:space="preserve">
<style type="text/css">
	.st0{fill:#EFEFEF;stroke:#969696;stroke-miterlimit:10;}
	.st1{fill:#706F6F;}
</style>
<g id="XMLID_121_">
	<rect id="XMLID_1_" x="2.5" y="1.7" class="st0" width="60" height="40"/>
	<g id="XMLID_4_">
		<path id="XMLID_5_" class="st1" d="M23.2,19.4l-0.9,0.1c-0.1-0.4-0.2-0.8-0.4-0.9c-0.2-0.3-0.5-0.4-0.8-0.4
			c-0.5,0-0.9,0.3-1.2,0.9c-0.3,0.5-0.4,1.3-0.4,2.4c0.2-0.4,0.4-0.7,0.8-0.9s0.6-0.3,1-0.3c0.6,0,1,0.3,1.5,0.8s0.6,1.2,0.6,2
			c0,0.6-0.1,1.1-0.3,1.6s-0.5,0.8-0.8,1s-0.7,0.3-1.1,0.3c-0.7,0-1.3-0.3-1.8-1s-0.7-1.7-0.7-3.2c0-1.7,0.2-2.8,0.7-3.5
			s1.1-1.1,1.8-1.1c0.5,0,1,0.2,1.3,0.5S23.1,18.7,23.2,19.4z M19.7,23.1c0,0.6,0.1,1.1,0.4,1.5s0.6,0.6,1,0.6
			c0.3,0,0.6-0.2,0.9-0.5s0.4-0.8,0.4-1.5c0-0.6-0.1-1.1-0.4-1.4s-0.6-0.5-1-0.5c-0.4,0-0.7,0.2-1,0.5S19.7,22.6,19.7,23.1z"/>
		<path id="XMLID_8_" class="st1" d="M24.2,21.7c0-1.4,0.2-2.5,0.6-3.3s1-1.1,1.7-1.1c0.7,0,1.2,0.3,1.6,0.9
			c0.5,0.7,0.7,1.9,0.7,3.5c0,1.4-0.2,2.5-0.6,3.3s-1,1.1-1.7,1.1c-0.7,0-1.2-0.3-1.6-1S24.2,23.3,24.2,21.7z M25.1,21.7
			c0,1.4,0.1,2.3,0.4,2.8c0.3,0.5,0.6,0.7,1,0.7c0.4,0,0.7-0.2,1-0.7s0.4-1.4,0.4-2.8c0-1.4-0.1-2.3-0.4-2.8s-0.6-0.7-1-0.7
			c-0.4,0-0.7,0.2-1,0.7C25.2,19.4,25.1,20.3,25.1,21.7z"/>
		<path id="XMLID_11_" class="st1" d="M29.3,25.9l2.7-4.5l-2.4-4.1h1.1l1.3,2.2c0.3,0.5,0.5,0.8,0.6,1.1c0.2-0.3,0.3-0.6,0.6-1
			l1.4-2.3h1l-2.5,4l2.7,4.5h-1.1l-1.8-3.1c-0.1-0.2-0.2-0.4-0.3-0.6c-0.2,0.3-0.3,0.5-0.3,0.6l-1.8,3H29.3z"/>
		<path id="XMLID_13_" class="st1" d="M39,25.9v-2.1H36v-1l3.2-5.6h0.7v5.6h1v1h-1v2.1H39z M39,22.9V19l-2.2,3.9H39z"/>
		<path id="XMLID_16_" class="st1" d="M41.7,21.7c0-1.4,0.2-2.5,0.6-3.3s1-1.1,1.7-1.1c0.7,0,1.2,0.3,1.6,0.9
			c0.5,0.7,0.7,1.9,0.7,3.5c0,1.4-0.2,2.5-0.6,3.3s-1,1.1-1.7,1.1c-0.7,0-1.2-0.3-1.6-1S41.7,23.3,41.7,21.7z M42.6,21.7
			c0,1.4,0.1,2.3,0.4,2.8c0.3,0.5,0.6,0.7,1,0.7c0.4,0,0.7-0.2,1-0.7s0.4-1.4,0.4-2.8c0-1.4-0.1-2.3-0.4-2.8s-0.6-0.7-1-0.7
			c-0.4,0-0.7,0.2-1,0.7C42.7,19.4,42.6,20.3,42.6,21.7z"/>
	</g>
</g>
</svg>
