<?xml version="1.0" encoding="utf-8"?>
<!-- Generator: Adobe Illustrator 19.0.0, SVG Export Plug-In . SVG Version: 6.00 Build 0)  -->
<svg version="1.1" id="Capa_1" xmlns="http://www.w3.org/2000/svg" xmlns:xlink="http://www.w3.org/1999/xlink" x="0px" y="0px"
	 viewBox="0 0 345.3 105.3" style="enable-background:new 0 0 345.3 105.3;" xml:space="preserve">
<style type="text/css">
	.st0{fill:#E42313;}
</style>
<g>
	<path class="st0" d="M123.9,98V59.3c0-5.1-1.9-9.6-5.7-13.4c-3.8-3.7-8.3-5.6-13.3-5.6c-5.1,0-9.6,1.9-13.4,5.6
		c-3.8,3.7-5.7,8.2-5.7,13.4V98H75.4V60.2c0-8.6,2.8-15.8,8.4-21.6c5.6-5.7,12.7-8.6,21.2-8.6c8.4,0,15.5,2.9,21.1,8.6
		c5.6,5.7,8.4,13,8.4,21.6V98H123.9z"/>
	<g>
		<path class="st0" d="M168.4,98V31.5h9.9v6.9c1.7-2.3,4-4.2,6.7-5.6c3.1-1.7,6.3-2.5,9.6-2.5c0.3,0,0.6,0,0.9,0l0.9,0v10.4l-0.9,0
			c-3.8,0.1-6.9,1.2-9.2,3.1c-2.4,2-4,3.7-4.9,5.1c-1.3,2.3-2,5.5-2,9.5V98H168.4z"/>
	</g>
	<g>
		<path class="st0" d="M301.5,99.8c-0.4,0-0.8,0-1.2,0c-9.2-0.2-17.1-3.8-23.5-10.5c-6.4-6.7-9.6-14.8-9.6-24.1
			c0-9.7,3.5-18.1,10.3-25c6.6-6.6,14.5-10,23.4-10c0.4,0,0.8,0,1.2,0c8.9,0.4,16.6,3.7,22.8,10v-31h10.5v55.9
			c0.2,9.5-3.2,17.8-10.2,24.7C318.5,96.4,310.5,99.8,301.5,99.8z M301.4,40.5c-6.4,0-12,2.3-16.6,7c-4.7,4.7-7.1,10.4-7.2,17
			c-0.1,6.6,2.1,12.4,6.6,17.3c4.4,4.9,9.9,7.5,16.2,7.7c0.5,0,0.9,0,1.4,0c6.2,0,11.6-2.4,16.1-7.1c4.8-5.1,7.2-11.1,7-18
			c-0.1-6.6-2.5-12.2-6.9-16.9c-4.5-4.6-9.9-7-16.3-7L301.4,40.5z"/>
	</g>
	<g>
		<rect x="144" y="31.5" class="st0" width="10.5" height="66.4"/>
		<path class="st0" d="M149.2,23.2c-3.4,0-6.2-2.8-6.2-6.3c0-3.4,2.8-6.2,6.2-6.2c3.4,0,6.2,2.8,6.2,6.2
			C155.4,20.4,152.6,23.2,149.2,23.2z"/>
	</g>
	<path class="st0" d="M38.4,99.5c-8.5,0-15.6-2.9-21.1-8.7c-5.5-5.7-8.4-13-8.4-21.6V31.5h10.5v38.8c0,5.2,1.9,9.6,5.7,13.3
		c3.8,3.7,8.3,5.6,13.3,5.6c5,0,9.5-1.9,13.3-5.6c3.8-3.7,5.7-8.2,5.7-13.3V31.5h10.5v37.7c0,8.6-2.8,15.9-8.4,21.6
		C53.9,96.6,46.8,99.5,38.4,99.5z"/>
	<path class="st0" d="M250.3,76.7c-2.6,5.1-6.9,8.7-13.2,10.9c-1.9,0.7-3.9,1.1-5.8,1.3c-4,0.4-7.9-0.2-11.7-1.8
		c-5.3-2.3-9.4-6-11.9-11.3l54.9-18.1l-1.8-5.3c-2.6-7.8-7.9-14-16-18.3c-6.5-3.4-13.2-4.8-19.9-4.1c-1.8,0.2-3.6,0.5-5.4,1
		c-9.5,2.6-16.7,8.5-21.3,17.5c-4.6,9-5.3,18.3-2,27.7c3.1,8.8,9.1,15.5,17.8,19.7c6.2,3,12.4,4.2,18.5,3.6c2.5-0.3,5-0.8,7.5-1.7
		c6.8-2.3,12.4-6.4,16.7-12.2c2-2.7,3.5-5.6,4.6-8.7H250.3z M204.7,66.5c-0.5-5.5,0.8-10.6,3.7-15.1c3.1-4.8,7.5-8.2,13.2-10
		c1.8-0.6,3.6-1,5.4-1.1c3.7-0.4,7.4,0.1,11,1.5c4.8,1.9,8.7,5.2,11.6,9.9L204.7,66.5z"/>
</g>
</svg>
